<?xml version="1.0" encoding="utf-8"?>
<!-- Generator: Adobe Illustrator 17.1.0, SVG Export Plug-In . SVG Version: 6.00 Build 0)  -->
<!DOCTYPE svg PUBLIC "-//W3C//DTD SVG 1.1//EN" "http://www.w3.org/Graphics/SVG/1.1/DTD/svg11.dtd">
<svg version="1.1" id="Layer_1" xmlns="http://www.w3.org/2000/svg" xmlns:xlink="http://www.w3.org/1999/xlink" x="0px" y="0px"
	 viewBox="0 0 200 100" enable-background="new 0 0 200 100" xml:space="preserve">
<ellipse fill="#BFE1EB" cx="119.3" cy="54.4" rx="27.8" ry="16.8"/>
<ellipse fill="#BFE1EB" cx="15.6" cy="90.2" rx="20.5" ry="16.2"/>
<ellipse fill="#BFE1EB" cx="32.4" cy="77.7" rx="34.8" ry="17.5"/>
<ellipse fill="#BFE1EB" cx="72.1" cy="67" rx="30.1" ry="18.7"/>
<ellipse fill="#BFE1EB" cx="169.1" cy="77.2" rx="35.1" ry="20.5"/>
<ellipse fill="#BFE1EB" cx="154.1" cy="66.5" rx="28.7" ry="7.5"/>
<ellipse fill="#BFE1EB" cx="124.8" cy="89.5" rx="37.2" ry="21.3"/>
<ellipse fill="#BFE1EB" cx="77.7" cy="85.5" rx="46.2" ry="26.5"/>
<ellipse fill="#BFE1EB" cx="39.3" cy="96.1" rx="13.5" ry="8.4"/>
<ellipse fill="#BFE1EB" cx="180.9" cy="95.2" rx="28" ry="12.6"/>
<ellipse fill="#BFE1EB" cx="154.1" cy="57.5" rx="16.3" ry="7.5"/>
<g>
	<circle fill="#C7D851" cx="104.1" cy="77.6" r="12.6"/>
	<g>
		<g>
			<g>
				<g>
					<path fill="#0C0E0F" d="M117.3,77.5c0,0.1,0.1,0.1,0.1,0.1C117.4,77.3,117.3,77.5,117.3,77.5z"/>
					<polygon fill="#0C0E0F" points="116.9,75.5 116.9,75.5 116.8,75.2 					"/>
					<path fill="#0C0E0F" d="M116.5,73.7c-0.1,0.2,0.2,0.6,0.2,1l0,0.1l0.2,0.1C116.7,74.4,116.5,74,116.5,73.7z"/>
					<path fill="#0C0E0F" d="M116.5,72.6c0,0.1-0.1-0.2,0.1,0.2c0,0,0,0,0,0C116.5,72.7,116.5,72.7,116.5,72.6z"/>
					<path fill="#0C0E0F" d="M116.5,72.8C116.6,73,116.6,72.6,116.5,72.8L116.5,72.8z"/>
					<path fill="#0C0E0F" d="M116.1,71.9l0.2,0.2c0-0.1-0.1-0.3,0-0.2C116.2,71.7,116.1,71.8,116.1,71.9z"/>
					<path fill="#0C0E0F" d="M115.9,71.8l0.1,0.1C116,71.9,116,71.8,115.9,71.8z"/>
					<path fill="#0C0E0F" d="M116.2,72.1l-0.2-0.2c0,0-0.1,0.1,0.1,0.1C116,72,116.1,72,116.2,72.1z"/>
					<path fill="#0C0E0F" d="M116.2,72.3c0,0.1,0.1,0.3-0.1,0.1C116.3,72.9,116.4,72.7,116.2,72.3z"/>
					<path fill="#0C0E0F" d="M116.3,73.6l0,0.2l0.1,0.1C116.3,73.9,116.3,73.6,116.3,73.6z"/>
					<path fill="#0C0E0F" d="M115.4,70.4c0,0,0,0.1-0.1,0.2l0.1,0.1C115.5,70.7,115.4,70.5,115.4,70.4z"/>
					<path fill="#0C0E0F" d="M115.4,70.6l-0.2-0.2C115.3,70.6,115.3,70.7,115.4,70.6z"/>
					<polygon fill="#0C0E0F" points="115.7,71.8 116.1,72.2 115.7,71.7 					"/>
					<polygon fill="#0C0E0F" points="114.8,69.5 115,69.6 114.7,69.4 					"/>
					<path fill="#0C0E0F" d="M114.3,68.9c0.1,0,0-0.2,0.1-0.1c-0.1-0.1-0.3-0.2-0.5-0.3C114.1,68.6,114.2,68.7,114.3,68.9z"/>
					<path fill="#0C0E0F" d="M113.7,68.4c0.1,0,0.1,0.1,0.2,0.1C113.9,68.4,113.8,68.4,113.7,68.4z"/>
					<path fill="#0C0E0F" d="M114.9,70c0,0,0-0.1,0-0.2L114.9,70C114.9,69.9,114.9,70,114.9,70z"/>
					<path fill="#0C0E0F" d="M114.8,69.9L114.8,69.9c-0.1-0.1-0.1-0.2-0.1-0.2C114.7,69.7,114.8,69.8,114.8,69.9z"/>
					<path fill="#0C0E0F" d="M114.9,70L114.9,70C114.9,70,114.9,70,114.9,70z"/>
					<path fill="#0C0E0F" d="M115.5,71.1c-0.1-0.1-0.4-0.4-0.3,0C115.3,71.1,115.3,70.9,115.5,71.1z"/>
					<path fill="#0C0E0F" d="M114.9,70.2c0,0,0.1,0.3,0.1,0.3c0,0,0-0.1,0.1,0C115.1,70.4,114.9,70.2,114.9,70.2z"/>
					<polygon fill="#0C0E0F" points="114.8,70.1 114.9,70.2 114.8,70.1 					"/>
					<path fill="#0C0E0F" d="M114,68.8c-0.1-0.1-0.2-0.2-0.3-0.3c0.1,0.1,0.2,0.3,0.3,0.4C114.1,68.9,114.2,69,114,68.8z"/>
					<path fill="#0C0E0F" d="M114.4,69.3L114.4,69.3C114.4,69.3,114.4,69.3,114.4,69.3z"/>
					<polygon fill="#0C0E0F" points="112.5,67.4 112.5,67.4 112.5,67.4 					"/>
					<path fill="#0C0E0F" d="M114,69c0.1,0.1,0.1,0.2,0.2,0.2C114.2,69.1,114.1,69,114,69C114,68.9,114,68.9,114,69z"/>
					<path fill="#0C0E0F" d="M113.4,68.1c0,0.1,0.1,0.1,0.1,0.2C113.5,68.2,113.4,68.1,113.4,68.1z"/>
					<path fill="#0C0E0F" d="M114.4,69.3L114.4,69.3C114.4,69.2,114.4,69.2,114.4,69.3z"/>
					<path fill="#0C0E0F" d="M114.4,69.3c-0.1,0-0.1-0.1-0.2-0.1C114.3,69.2,114.4,69.3,114.4,69.3
						C114.4,69.3,114.4,69.3,114.4,69.3z"/>
					<path fill="#0C0E0F" d="M111.7,67.7c0.1-0.1,0.4,0,0.6,0.3c0.3,0.1,0.3-0.2,0.3-0.5c0,0-0.1,0-0.3-0.1c0.1,0.1,0.4,0.5,0.2,0.4
						c-0.3-0.2-0.2-0.2-0.3-0.4c0.1,0.2-0.5-0.2-0.5,0L111.7,67.7C111.8,67.6,111.7,67.6,111.7,67.7z"/>
					<path fill="#0C0E0F" d="M113,67.8l0.1,0.1c-0.1-0.1-0.1-0.2-0.2-0.4c-0.2-0.1-0.2-0.1-0.3-0.1L113,67.8L113,67.8z"/>
					<path fill="#0C0E0F" d="M113.5,68.3c-0.1,0-0.4-0.2-0.3,0c0.3,0.2,0.2,0.1,0.4,0.2C113.1,68.2,113.7,68.7,113.5,68.3
						c0.1,0.1,0.2,0.2,0.2,0.2C113.6,68.4,113.6,68.4,113.5,68.3L113.5,68.3L113.5,68.3L113.5,68.3
						C113.5,68.3,113.5,68.3,113.5,68.3L113.5,68.3C113.5,68.3,113.5,68.3,113.5,68.3C113.4,68.2,113.5,68.3,113.5,68.3L113.5,68.3
						L113.5,68.3c0.1,0-0.4-0.4-0.4-0.4C113.1,68,113.3,68.1,113.5,68.3z"/>
					<path fill="#0C0E0F" d="M114.8,70.9C114.8,70.9,114.8,70.9,114.8,70.9C114.8,70.9,114.8,70.9,114.8,70.9z"/>
					<path fill="#0C0E0F" d="M114.8,70.7c0,0,0.1,0,0.1,0.2c0,0.1,0,0-0.1,0.1c0.1,0.1,0.2,0.2,0.1,0l0,0c-0.1-0.2-0.1-0.5-0.1-0.5
						C114.8,70.4,114.8,70.5,114.8,70.7z"/>
					<path fill="#0C0E0F" d="M114.1,69.5c0,0-0.4-0.3-0.4-0.3l0.1,0.2l0,0C114.1,69.6,114.1,69.5,114.1,69.5z"/>
					<path fill="#0C0E0F" d="M112.5,67.3l0.1,0c0,0-0.3-0.1-0.3-0.1L112.5,67.3z"/>
					<polygon fill="#0C0E0F" points="112,67 112.1,66.9 111.9,66.8 					"/>
					<path fill="#0C0E0F" d="M93.8,83.7L93.8,83.7C93.8,83.7,93.8,83.7,93.8,83.7z"/>
					<path fill="#0C0E0F" d="M93.3,82.8L93.3,82.8C93.3,82.9,93.3,82.9,93.3,82.8z"/>
					<path fill="#0C0E0F" d="M97.1,66.3c-0.2,0-0.5,0-0.4,0.1l0.1,0.1C96.9,66.4,97,66.3,97.1,66.3z"/>
					<path fill="#0C0E0F" d="M91.7,75.1L91.7,75.1c0-0.1,0-0.2,0-0.2C91.7,74.9,91.7,75,91.7,75.1z"/>
					<path fill="#0C0E0F" d="M92.2,75.3l-0.1,0.2C92.1,75.5,92.1,75.4,92.2,75.3z"/>
					<path fill="#0C0E0F" d="M97.4,87.4l0.2,0C97.3,87.2,97.4,87.3,97.4,87.4z"/>
					<path fill="#0C0E0F" d="M106,64.5c-0.2-0.1-0.3-0.1-0.4-0.1C105.7,64.5,105.9,64.6,106,64.5z"/>
					<path fill="#0C0E0F" d="M92.5,83.9c0.1,0.1,0.1,0.1,0.1,0.1C92.6,83.9,92.6,83.9,92.5,83.9z"/>
					<path fill="#0C0E0F" d="M105,64.3C105,64.3,105,64.4,105,64.3c0.2,0,0.4,0,0.5,0C105.4,64.3,105.2,64.3,105,64.3z"/>
					<path fill="#0C0E0F" d="M114,84.3C114,84.2,114,84.2,114,84.3C114,84.2,114,84.2,114,84.3z"/>
					<path fill="#0C0E0F" d="M117,79.3c0,0.1,0,0.2,0,0.2C117,79.5,117,79.4,117,79.3z"/>
					<path fill="#0C0E0F" d="M109.8,65.6C109.9,65.6,109.8,65.6,109.8,65.6L109.8,65.6z"/>
					<path fill="#0C0E0F" d="M110.2,66.2C110.2,66.2,110.1,66.2,110.2,66.2C110.1,66.2,110.2,66.2,110.2,66.2z"/>
					<path fill="#0C0E0F" d="M103.6,65L103.6,65C103.7,65,103.7,65,103.6,65z"/>
					<path fill="#0C0E0F" d="M110,65.7c0,0-0.1-0.1-0.1-0.1C109.8,65.6,109.9,65.7,110,65.7z"/>
					<path fill="#0C0E0F" d="M110,65.7c0,0,0.1,0,0.1,0.1C110.1,65.7,110.1,65.7,110,65.7z"/>
					<path fill="#0C0E0F" d="M109.6,65.5c0.1,0,0.1,0.1,0.2,0.1c0,0,0,0,0,0C109.8,65.6,109.7,65.5,109.6,65.5z"/>
					<path fill="#0C0E0F" d="M105.7,89.7C105.7,89.7,105.7,89.7,105.7,89.7C105.8,89.7,105.8,89.7,105.7,89.7z"/>
					<polygon fill="#0C0E0F" points="95.2,69.3 95.2,69.3 95.2,69.3 					"/>
					<path fill="#0C0E0F" d="M95,69.7c0-0.2,0.1-0.3,0.2-0.4l-0.3-0.1L95,69.7z"/>
					<path fill="#0C0E0F" d="M95.1,85.5L95,85.2c0.4,0.2,0.5,0.4,0.4,0.1c-0.3,0.2-0.8-0.9-1.1-0.7l-0.1-0.2c0,0,0.1,0,0.1,0.1
						c-0.1-0.4-0.4-0.1-0.6-0.6c-0.1-0.2-0.1-0.3,0-0.2l-0.3-0.3c-0.1-0.1,0-0.1,0.1,0c0,0-0.3-0.5-0.3-0.5l0,0
						c-0.1-0.1-0.2-0.2-0.3-0.3c0-0.2,0.1,0.1,0.1,0c0,0-0.2-0.3-0.2-0.3c0-0.2,0.2,0.1,0.3,0.3c0.2-0.4-0.2-0.2-0.3-0.9l0.1,0.3
						c0.1-0.3,0-0.5,0-0.8c0,0.1,0,0.8-0.2,0.5c0-0.1-0.1-0.2-0.2-0.4c0.1,0,0-0.2,0-0.4l0.2,0c-0.1-0.2-0.2-0.2-0.3-0.3
						c-0.1-0.3,0-0.4,0.1-0.5c0-0.5-0.1,0.4-0.3-0.2c0-0.4-0.1-0.6-0.2-1.1c0-0.3,0.1,0,0.1-0.1L92,78.3c0-0.1,0,0,0.1,0
						c-0.1-0.2-0.2,0-0.2-0.3c-0.2-0.1,0.2-0.7,0.1-1.1c0.1-0.1,0.1,0.1,0.2,0c-0.1-0.6-0.1-0.5-0.2-0.9l0.2-0.4
						c-0.2,0.3-0.2-0.1-0.3-0.5c-0.1,0.1-0.1,0.2-0.2,0.2c0,0,0-0.1,0-0.3c0-0.1,0-0.3,0-0.3c0-0.1,0.1,0,0.1,0.1c0,0,0-0.1,0-0.1
						c0.1-0.2,0.2-0.1,0.2,0.1c0,0.1-0.1,0.1-0.1,0.2c0.1,0.1,0.2,0.3,0.3,0.3c0,0,0-0.1,0-0.2c0,0,0,0.1,0.1,0.1c0,0,0-0.1,0-0.2
						l0.2-0.1l-0.1,0l0.3-0.6c-0.1-0.5-0.1-1,0.1-1.7c0,0.2,0.2,0.1,0.3,0.2c-0.2,0.1-0.1,0.6-0.3,0.9c0.1-0.2,0.1-0.1,0.1-0.1
						l0.1-0.7c0.1,0.1,0.1-0.1,0.3-0.2c-0.3,0,0.1-0.5,0.1-0.8c0.1,0,0.1,0.1,0,0.4c0.3-0.3-0.1-0.6,0.3-0.8c0,0.1-0.1,0.1-0.1,0.2
						c0-0.2,0.3-0.6,0.3-0.5l0,0.1c0.3-0.5,1-1.4,0.9-1.6c0,0,0.1,0.2,0.2,0.3c0,0,0-0.3,0.1-0.6c0-0.3,0.1-0.6,0.1-0.6
						c0.1,0.2,0.6,0.2,0.4,0.7c0.1-0.1,0.2-0.2,0.4-0.4c-0.1,0-0.4,0-0.3-0.1c0.4-0.1,0.3-0.1,0.7-0.2c-0.1,0.1-0.2-0.3,0-0.4
						c0,0.1,0.2,0.2,0.2,0.3c0,0,0.1-0.1,0.1-0.3c0.1-0.1,0.1-0.3,0.1-0.3C96.3,68,96.5,68,96.7,68c-0.1,0,0.4-0.3,0.5-0.4l-0.2,0.1
						c0.5-0.3,0.3-0.7,0.8-1c0,0.1,0,0.4,0.3,0.3c0-0.2,0.2-0.9,0.7-1.3l0.1,0c0,0,0.4-0.3,0.4-0.3c-0.2,0.3-0.6,1-0.9,1.4
						c0.2,0,0.1,0.1,0.4-0.1c0.1,0-0.1,0.2-0.2,0.2l0.7-0.3c-0.1-0.2,0.5-0.4,0.4-0.5c0,0-0.2,0.1-0.4,0.2c-0.2,0.1-0.3,0.3-0.3,0.3
						c-0.1-0.1,0.2-0.7,0.8-0.8c0.2,0,0,0.3,0,0.4c0-0.1,0.5-0.3,0.5-0.3l-0.2,0.2c0.3,0,0.4-0.4,0.8-0.3c0.1,0,0.4,0.1,0.4,0
						c-0.2-0.1-0.4-0.7-0.3-0.9c0.1,0,0.7,0,0.9,0.1c0.2,0.1-0.3,0.4-0.1,0.5c0,0,0.1-0.1,0.2-0.1c0.1,0,0,0.1,0.3,0.1
						c0-0.2,0.6-0.1,0.1-0.2c0.3-0.1,0.3,0,0.6-0.1c-0.1-0.1,0.3-0.4,0.6-0.5c0,0,0.1,0.1,0.1,0.1c0.6,0,0.9,0.1,1.5,0.1
						c0,0,0.3,0.1,0.2,0.2c0.1,0,0.2-0.1,0.3,0c0.3,0.2-0.4,0-0.2,0.2c0-0.1,0.5-0.1,0.7-0.1c0-0.2-0.6-0.1-0.8-0.1
						c0-0.2,0.5-0.4,1.1-0.4c0.5,0,0.2,0.2,0.3,0.2c0.9,0.3,0.9-0.2,1.5,0.2c0.2,0.2-0.1,0.3,0,0.4c-0.4-0.1-0.5-0.3-0.8-0.3
						l0.3,0.1c-0.1,0-0.4,0-0.5-0.1c0.2,0.2,1.4,0.4,2,0.8c0.1,0,0.3,0.1,0.3,0l-0.2-0.1c-0.1-0.2,0.4,0,0.2-0.1
						c0.3,0.1,0.7,0.1,1,0.4l0,0.2c0,0-0.2-0.2-0.3-0.2c0.2,0,0.4,0.5,0.7,0.4l-0.2-0.2c0.3,0.1,0.7,0.1,1,0.4
						c-0.1-0.2-0.1,0-0.2-0.3c0.1,0.3-0.8-0.5-0.6-0.1c-0.1-0.3-0.4-0.3-0.6-0.6c0,0,0.1,0.1-0.2,0c0,0-0.1,0-0.1,0l0,0l0,0
						c0,0,0,0,0,0c0.1,0.1,0.1,0.1,0.1,0.1c-0.2,0-0.6-0.2-0.8-0.2c-0.2-0.1,0.1,0,0-0.1c0,0-0.3,0-0.3,0c0-0.1-0.4-0.3,0-0.3
						l-0.4-0.1c-0.2-0.1-0.5-0.3-0.7-0.3c-0.2-0.1-0.5,0-0.3,0l-0.6-0.1l0,0c-0.3-0.1-0.6-0.1-1-0.1c-0.3,0-0.7-0.1-1-0.2
						c-0.2,0-0.4,0-0.8,0l-0.1-0.1c-0.3,0-0.8-0.1-0.9,0c-0.3-0.3-1.3,0.1-1.8,0.1l0,0.1c-0.3,0.1-0.6,0.2-1,0.3l0.1,0.1
						c-0.3,0.2-0.9,0.2-1.4,0.4c0-0.1,0.2-0.1,0.3-0.1c-0.7,0-1.2,0.7-1.8,0.8c-0.1,0.1-0.2,0.2-0.3,0.2c0,0,0,0,0,0c0,0,0,0-0.1,0
						c-0.1,0-0.1,0-0.2,0.1c0.1,0,0.1,0,0.2,0c-0.1,0.1-0.2,0.2-0.4,0.3l-0.1-0.1c0,0,0,0,0,0c-0.2,0.1-0.1,0.1,0,0.1
						c-0.1,0.1-0.1,0.1-0.1,0.2c-0.2-0.1-0.3,0.3-0.6,0.3c0,0.1-0.2,0.2-0.3,0.4c-0.1,0.2-0.3,0.3-0.2,0.4c0,0-0.1,0,0-0.1
						c-0.2,0.1-0.3,0.2-0.4,0.4L95,68.2c0,0-0.1,0.4-0.1,0.4c-0.2,0.1-0.3,0.2-0.3-0.1c-0.3,0.6-0.3,0.4-0.5,0.9l-0.1-0.1
						c-0.1,0.1-0.2,0.5-0.3,0.5c-0.4,0.2-1.1,1.6-1.7,2.5c0.3-0.1-0.3,0.4-0.1,0.5c-0.1,0-0.2,0.2-0.2,0c-0.1,0.5-0.4,0.7-0.3,1.1
						c-0.1,0-0.1-0.1-0.1-0.1c0,0,0,0.2,0,0.2c-0.1,0,0-0.1,0-0.2c-0.1,0.5,0.1,0.6,0.3,0.7c-0.2,0.2-0.2,0.4-0.1,0.6
						c-0.1,0.1-0.2,0.2-0.1-0.1c0,0.2-0.3,1.1-0.1,1.2c0,0.1,0,0.3,0,0.3c0,0.4,0,0.5-0.1,0.9l0-0.1c0.2,0.2,0,0.3,0.1,0.7l0,0
						c-0.1,0.8,0.1,0.3,0,1.1l0.1-0.1c0.3,0-0.1,0.7,0.1,1.1l0-0.2c0.1,0.2-0.2,0.7-0.2,1c0,0.1-0.1-0.1-0.1-0.1
						c0,0.7,0.2,0,0.3,0.5c-0.1,0.1-0.2,0-0.2,0.3c0,0.2,0.6,0.8,0.6,1.2c0-0.1,0-0.2,0.2,0c0.2,0.3,0.2,0.9,0.5,1.1
						c0,0,0,0.1,0,0.1c0.2,0.2,0.5,0.7,0.7,0.7c-0.2,0.4,1.1,1.2,0.8,1.4l0.5,0.6l0,0c0.3,0.4,0.5,0.4,0.7,0.5c0.1,0.1,0,0.1,0,0.1
						c0.5,0.6,0.6,0.6,1.2,0.8l0,0.1c0.2,0.1,0.8,0.8,1.5,1c0,0,0,0-0.1,0c0.4,0.1,0.8,0.4,1.2,0.6c0.4,0.2,0.7,0.3,0.9,0.2
						c0,0,0.5,0,0.5,0c-0.7-0.2,0.2-0.2-0.1-0.3c0.3,0,0.6,0.3,0.3,0.2l0,0c-0.2,0.2,0.8,0.3,0.8,0.4c1.3,0.3,2.7,0.4,4,0.3
						l-0.2-0.2c0,0,0.4-0.1,0.4-0.1c0.1,0,0.2,0.1-0.1,0.2c0.2,0.1,0.5-0.2,0.5-0.2c0.6,0-0.2,0.2,0,0.2l0.3-0.1l-0.1,0
						c0.2-0.1,0.2-0.2,0.6-0.3c0.2,0,0.1,0.1,0.2,0.1c0,0,0,0,0.1,0l0.6-0.1l-0.3-0.1c0.2-0.1,0.5-0.1,0.2-0.2
						c0.2,0.1,0.7-0.1,1.2-0.3c0.5-0.2,0.9-0.4,1-0.5c0.3-0.2,0.5-0.4,0.9-0.6c-0.1,0-0.2-0.1,0.1-0.2c0.1,0.4,0.6-0.3,1-0.2
						c-0.3,0,0.8-0.7,0.3-0.6c0.2-0.2,0.1,0.1,0.3,0c0.5-0.6,1.2-1.1,1.8-1.8c0,0-0.2,0-0.1-0.2l0.5-0.3c0.1-0.2-0.1-0.3,0.2-0.5
						c-0.1,0-0.1,0-0.1-0.1c1.2-1.4,1.5-3.3,2.2-5c-0.1,0.2-0.1,0.1-0.1-0.1c0,0.1-0.1,0-0.2,0c0,0,0.3-0.7,0.3-0.7
						c-0.2-0.2,0-0.8-0.1-0.9l0,0.2c-0.2-0.3-0.4,0.4-0.7,0.3c0.2,0.4-0.4,0.8-0.2,1.4c-0.1,0.1-0.1-0.1-0.1-0.1
						c0.1,0.2,0.1,0.3-0.1,0.6l0,0c-0.2,0.9-0.4,1.2-0.8,2l0.1,0c-0.1,0.2-0.2,0.2-0.2,0.3c0.1,0.3,0.3-0.5,0.4-0.2
						c-0.2,0.1-0.3,0.4-0.5,0.7c-0.2,0.3-0.4,0.6-0.5,0.6c-0.2,0.3,0.2,0,0,0.3l-0.1,0l0,0.1c-0.1,0.2-0.3,0.2-0.3,0.2
						c0,0,0.1-0.1,0.1-0.2c-0.2,0.2-0.4,0.6-0.5,0.7l0.2-0.2c-0.4,0.8-1.3,1.4-1.8,2.1l0.1,0c-0.4,0.5-0.5,0.3-1,0.7l0,0
						c-0.1,0.1-0.2,0.3-0.4,0.4c0.1-0.1-0.4,0.1-0.2-0.1c-0.5,0.5-0.2,0.3-0.6,0.7l-0.1,0c-0.1,0.1-0.1,0.2-0.4,0.4
						c0.2-0.2-0.3,0,0-0.3c-0.7,0.2-1,0.6-1.4,0.5c-0.2,0.4,0.7-0.1,0.5,0c0.2,0-0.2,0.3-0.4,0.3c-0.2,0.1-0.5-0.2-1.1,0
						c0.1,0,0.1,0,0.1,0c-0.2,0-0.4,0.2-0.7,0.1c-0.1,0.2-0.4,0-0.4,0.2l0.5-0.1c-0.3,0.1-0.6,0.4-1.1,0.3c0,0,0.2-0.1,0.3-0.2
						c-0.2,0-0.3,0.1-0.4,0c0-0.2,0.7-0.1,1-0.3c-0.2-0.1-0.6,0.2-0.5,0c-0.2,0.3-0.6,0.1-1,0.3l0-0.1c-0.1,0-0.2,0.1-0.3,0.1
						l0.2-0.2c-0.3,0.1-0.6-0.1-0.9,0c0.6,0,0.1,0.2,0.4,0.2c-0.8,0.1-0.5-0.3-1.4-0.3c0.1,0,0.4,0.1,0.3,0.1
						c-0.2,0-0.4-0.1-0.5-0.2c-0.6-0.1,0.1,0.1-0.2,0.2c-0.2-0.2-0.3,0-0.6,0l0-0.1c-0.7-0.2-0.2,0.2-0.8,0l0.3-0.1l-0.3,0l0.1-0.1
						c-0.4,0-0.5,0-0.8-0.2c0,0.1-0.1,0.2-0.4,0.1c-0.2-0.1,0.1-0.1-0.3-0.2c0.1,0,0.3-0.1,0.4,0.1c0,0,0.1,0,0.1-0.1
						c-0.2-0.2-0.5-0.2-0.7-0.3c0.1,0,0.1,0.1,0.1,0.1c0,0-0.6-0.1-0.6-0.1c-0.1-0.1,0-0.1,0.1-0.1c-0.1,0-0.2,0-0.4-0.1
						c0.1-0.1,0.1-0.2,0.4-0.1l-0.6-0.2c0-0.1-0.2-0.2-0.1-0.2c-0.2-0.2-0.8-0.2-1.1-0.5c0,0-0.1,0-0.2-0.1c-0.3-0.3-0.5-0.5-1-0.8
						l-0.1-0.3c-0.3-0.2,0.1,0.4-0.4,0c-0.4-0.3,0-0.2-0.1-0.4c-0.2-0.1-0.6-0.3-0.8-0.7C95,85.3,95,85.4,95.1,85.5z M92.7,81.5
						c0.1,0.1,0.2,0.2,0.1,0.3C92.7,81.8,92.7,81.7,92.7,81.5z M92.1,74.4c0,0.1,0,0.2-0.1,0.3C92.1,74.6,92.1,74.5,92.1,74.4z
						 M108.4,65.1L108.4,65.1C108.2,65,108.2,65,108.4,65.1z M108.8,65.3C108.8,65.3,108.8,65.3,108.8,65.3c0,0-0.1-0.1-0.2-0.1
						C108.6,65.2,108.7,65.3,108.8,65.3z M107.2,90.2L107.2,90.2C107.3,90.2,107.3,90.2,107.2,90.2z"/>
					<path fill="#0C0E0F" d="M92.1,75.3C92.1,75.3,92.1,75.3,92.1,75.3C92.1,75.3,92.1,75.3,92.1,75.3z"/>
					<path fill="#0C0E0F" d="M97.3,87.4L97.3,87.4C97.3,87.4,97.3,87.4,97.3,87.4L97.3,87.4z"/>
					<path fill="#0C0E0F" d="M102,65.6c-0.1,0-0.1,0-0.2,0C101.8,65.6,101.9,65.6,102,65.6z"/>
					<path fill="#0C0E0F" d="M111.1,66.2l-0.3-0.1C110.9,66.1,111,66.2,111.1,66.2C111,66.2,111,66.2,111.1,66.2z"/>
					<path fill="#0C0E0F" d="M112.6,68.3c0,0,0.1,0.1,0.1,0.1l0,0C112.6,68.2,112.5,68.2,112.6,68.3z"/>
					<path fill="#0C0E0F" d="M111.1,66.7c0,0.1,0.1,0.2,0.3,0.3l0,0C111.5,66.8,111.3,66.8,111.1,66.7z"/>
					<path fill="#0C0E0F" d="M111.4,67c0.1,0,0.1,0.1,0.2,0.1C111.6,67.1,111.5,67,111.4,67z"/>
					<path fill="#0C0E0F" d="M109.4,65.5c0.1,0.1,0.1-0.1,0.1,0C109.7,65.3,108.8,65.3,109.4,65.5z"/>
					<polygon fill="#0C0E0F" points="111,67.1 111.1,66.9 110.9,66.9 					"/>
					<path fill="#0C0E0F" d="M109.7,66.2l0.3,0.2c0,0,0,0,0.1,0C109.9,66.3,109.7,66.2,109.7,66.2z"/>
					<path fill="#0C0E0F" d="M110.1,66.4c0.1,0,0.2,0.1,0.2,0.1C110.3,66.4,110.2,66.4,110.1,66.4z"/>
					<polygon fill="#0C0E0F" points="110.7,66.9 110.6,66.8 110.4,66.7 					"/>
					<path fill="#0C0E0F" d="M106.5,65.1l-0.3,0c0,0,0,0.1,0.2,0.1C106.4,65.1,106.6,65.1,106.5,65.1z"/>
					<path fill="#0C0E0F" d="M107.4,65.6c-0.1,0-0.1-0.1-0.1-0.1l-0.1,0.1L107.4,65.6z"/>
					<path fill="#0C0E0F" d="M106.5,65.4c0,0-0.5,0-0.1,0.1C106.4,65.5,106.8,65.5,106.5,65.4z"/>
					<polygon fill="#0C0E0F" points="101.4,65.3 101.5,65.3 101.4,65 					"/>
					<path fill="#0C0E0F" d="M97.6,67.6c0.4-0.1,0-0.2,0.3-0.3c0-0.1-0.3,0.1-0.2,0C97.5,67.5,97.4,67.5,97.6,67.6z"/>
					<path fill="#0C0E0F" d="M97.7,67.3C97.7,67.3,97.7,67.2,97.7,67.3C97.7,67.2,97.7,67.3,97.7,67.3z"/>
					<polygon fill="#0C0E0F" points="117.3,78.3 117.3,78 117.2,78.2 					"/>
					<path fill="#0C0E0F" d="M117.1,77.8l0.2-0.1l-0.1-0.2C117.1,77.6,117.1,77.7,117.1,77.8z"/>
					<path fill="#0C0E0F" d="M92.8,80.8L92.8,80.8c-0.1,0-0.1,0.1,0,0.2L92.8,80.8z"/>
					<polygon fill="#0C0E0F" points="94.1,83.9 94,83.8 94,84 					"/>
					<path fill="#0C0E0F" d="M95.9,85.9c-0.1-0.1-0.2-0.2-0.3-0.2C95.9,85.8,95.8,86,95.9,85.9z"/>
				</g>
			</g>
		</g>
	</g>
</g>
<text transform="matrix(0.8237 0 0 1 98.8418 86.1055)" font-family="'MyriadPro-Regular'" font-size="26.5258">0</text>
</svg>
