<?xml version="1.0" encoding="utf-8"?>
<!-- Generator: Adobe Illustrator 17.1.0, SVG Export Plug-In . SVG Version: 6.00 Build 0)  -->
<!DOCTYPE svg PUBLIC "-//W3C//DTD SVG 1.1//EN" "http://www.w3.org/Graphics/SVG/1.1/DTD/svg11.dtd">
<svg version="1.1" id="Layer_1" xmlns="http://www.w3.org/2000/svg" xmlns:xlink="http://www.w3.org/1999/xlink" x="0px" y="0px"
	 viewBox="0 0 200 100" enable-background="new 0 0 200 100" xml:space="preserve">
<ellipse fill="#BFE1EB" cx="116.7" cy="34.8" rx="27.8" ry="16.8"/>
<ellipse fill="#BFE1EB" cx="182.8" cy="38.8" rx="20.5" ry="16.2"/>
<ellipse fill="#BFE1EB" cx="25.8" cy="45.7" rx="34.8" ry="17.5"/>
<ellipse fill="#BFE1EB" cx="75.1" cy="43.2" rx="30.1" ry="18.7"/>
<ellipse fill="#BFE1EB" cx="155.6" cy="10.4" rx="35.1" ry="20.5"/>
<ellipse fill="#BFE1EB" cx="182.8" cy="25.4" rx="28.7" ry="7.5"/>
<ellipse fill="#BFE1EB" cx="96.8" cy="10.4" rx="37.2" ry="21.3"/>
<ellipse fill="#BFE1EB" cx="31.5" cy="17.9" rx="46.2" ry="26.5"/>
<ellipse fill="#BFE1EB" cx="194.4" cy="51.6" rx="13.5" ry="8.4"/>
<ellipse fill="#BFE1EB" cx="190.6" cy="11.8" rx="28" ry="12.6"/>
<ellipse fill="#BFE1EB" cx="153.1" cy="32.9" rx="16.3" ry="7.5"/>
<g>
	<circle fill="#82BB5D" cx="104.1" cy="24.5" r="12.6"/>
	<g>
		<g>
			<g>
				<g>
					<path fill="#0C0E0F" d="M117.3,24.4c0,0.1,0.1,0.1,0.1,0.1C117.4,24.3,117.3,24.4,117.3,24.4z"/>
					<polygon fill="#0C0E0F" points="116.9,22.4 116.9,22.4 116.8,22.2 					"/>
					<path fill="#0C0E0F" d="M116.5,20.6c-0.1,0.2,0.2,0.6,0.2,1l0,0.1l0.2,0.1C116.7,21.4,116.5,20.9,116.5,20.6z"/>
					<path fill="#0C0E0F" d="M116.5,19.5c0,0.1-0.1-0.2,0.1,0.2c0,0,0,0,0,0C116.5,19.7,116.5,19.6,116.5,19.5z"/>
					<path fill="#0C0E0F" d="M116.5,19.7C116.6,19.9,116.6,19.6,116.5,19.7L116.5,19.7z"/>
					<path fill="#0C0E0F" d="M116.1,18.9l0.2,0.2c0-0.1-0.1-0.3,0-0.2C116.2,18.6,116.1,18.7,116.1,18.9z"/>
					<path fill="#0C0E0F" d="M115.9,18.7l0.1,0.1C116,18.8,116,18.7,115.9,18.7z"/>
					<path fill="#0C0E0F" d="M116.2,19l-0.2-0.2c0,0-0.1,0.1,0.1,0.1C116,18.9,116.1,18.9,116.2,19z"/>
					<path fill="#0C0E0F" d="M116.2,19.2c0,0.1,0.1,0.3-0.1,0.1C116.3,19.8,116.4,19.7,116.2,19.2z"/>
					<path fill="#0C0E0F" d="M116.3,20.6l0,0.2l0.1,0.1C116.3,20.8,116.3,20.5,116.3,20.6z"/>
					<path fill="#0C0E0F" d="M115.4,17.4c0,0,0,0.1-0.1,0.2l0.1,0.1C115.5,17.6,115.4,17.4,115.4,17.4z"/>
					<path fill="#0C0E0F" d="M115.4,17.5l-0.2-0.2C115.3,17.6,115.3,17.6,115.4,17.5z"/>
					<polygon fill="#0C0E0F" points="115.7,18.7 116.1,19.1 115.7,18.7 					"/>
					<polygon fill="#0C0E0F" points="114.8,16.4 115,16.5 114.7,16.4 					"/>
					<path fill="#0C0E0F" d="M114.3,15.9c0.1,0,0-0.2,0.1-0.1c-0.1-0.1-0.3-0.2-0.5-0.3C114.1,15.5,114.2,15.7,114.3,15.9z"/>
					<path fill="#0C0E0F" d="M113.7,15.3c0.1,0,0.1,0.1,0.2,0.1C113.9,15.4,113.8,15.3,113.7,15.3z"/>
					<path fill="#0C0E0F" d="M114.9,16.9c0,0,0-0.1,0-0.2L114.9,16.9C114.9,16.8,114.9,16.9,114.9,16.9z"/>
					<path fill="#0C0E0F" d="M114.8,16.8L114.8,16.8c-0.1-0.1-0.1-0.2-0.1-0.2C114.7,16.6,114.8,16.7,114.8,16.8z"/>
					<path fill="#0C0E0F" d="M114.9,16.9L114.9,16.9C114.9,16.9,114.9,16.9,114.9,16.9z"/>
					<path fill="#0C0E0F" d="M115.5,18c-0.1-0.1-0.4-0.4-0.3,0C115.3,18.1,115.3,17.9,115.5,18z"/>
					<path fill="#0C0E0F" d="M114.9,17.1c0,0,0.1,0.3,0.1,0.3c0,0,0-0.1,0.1,0C115.1,17.4,114.9,17.1,114.9,17.1z"/>
					<polygon fill="#0C0E0F" points="114.8,17 114.9,17.1 114.8,17 					"/>
					<path fill="#0C0E0F" d="M114,15.7c-0.1-0.1-0.2-0.2-0.3-0.3c0.1,0.1,0.2,0.3,0.3,0.4C114.1,15.9,114.2,15.9,114,15.7z"/>
					<path fill="#0C0E0F" d="M114.4,16.3L114.4,16.3C114.4,16.3,114.4,16.3,114.4,16.3z"/>
					<polygon fill="#0C0E0F" points="112.5,14.3 112.5,14.4 112.5,14.4 					"/>
					<path fill="#0C0E0F" d="M114,15.9c0.1,0.1,0.1,0.2,0.2,0.2C114.2,16,114.1,15.9,114,15.9C114,15.9,114,15.9,114,15.9z"/>
					<path fill="#0C0E0F" d="M113.4,15c0,0.1,0.1,0.1,0.1,0.2C113.5,15.1,113.4,15,113.4,15z"/>
					<path fill="#0C0E0F" d="M114.4,16.2L114.4,16.2C114.4,16.1,114.4,16.2,114.4,16.2z"/>
					<path fill="#0C0E0F" d="M114.4,16.2c-0.1,0-0.1-0.1-0.2-0.1C114.3,16.1,114.4,16.2,114.4,16.2
						C114.4,16.2,114.4,16.2,114.4,16.2z"/>
					<path fill="#0C0E0F" d="M111.7,14.6c0.1-0.1,0.4,0,0.6,0.3c0.3,0.1,0.3-0.2,0.3-0.5c0,0-0.1,0-0.3-0.1c0.1,0.1,0.4,0.5,0.2,0.4
						c-0.3-0.2-0.2-0.2-0.3-0.4c0.1,0.2-0.5-0.2-0.5,0L111.7,14.6C111.8,14.5,111.7,14.5,111.7,14.6z"/>
					<path fill="#0C0E0F" d="M113,14.8l0.1,0.1c-0.1-0.1-0.1-0.2-0.2-0.4c-0.2-0.1-0.2-0.1-0.3-0.1L113,14.8L113,14.8z"/>
					<path fill="#0C0E0F" d="M113.5,15.2c-0.1,0-0.4-0.2-0.3,0c0.3,0.2,0.2,0.1,0.4,0.2C113.1,15.1,113.7,15.6,113.5,15.2
						c0.1,0.1,0.2,0.2,0.2,0.2C113.6,15.4,113.6,15.3,113.5,15.2L113.5,15.2L113.5,15.2L113.5,15.2
						C113.5,15.2,113.5,15.2,113.5,15.2L113.5,15.2C113.5,15.2,113.5,15.2,113.5,15.2C113.4,15.1,113.5,15.2,113.5,15.2L113.5,15.2
						L113.5,15.2c0.1,0-0.4-0.4-0.4-0.4C113.1,14.9,113.3,15,113.5,15.2z"/>
					<path fill="#0C0E0F" d="M114.8,17.8C114.8,17.8,114.8,17.8,114.8,17.8C114.8,17.8,114.8,17.8,114.8,17.8z"/>
					<path fill="#0C0E0F" d="M114.8,17.6c0,0,0.1,0,0.1,0.2c0,0.1,0,0-0.1,0.1c0.1,0.1,0.2,0.2,0.1,0l0,0c-0.1-0.2-0.1-0.5-0.1-0.5
						C114.8,17.3,114.8,17.4,114.8,17.6z"/>
					<path fill="#0C0E0F" d="M114.1,16.4c0,0-0.4-0.3-0.4-0.3l0.1,0.2l0,0C114.1,16.5,114.1,16.4,114.1,16.4z"/>
					<path fill="#0C0E0F" d="M112.5,14.3l0.1,0c0,0-0.3-0.1-0.3-0.1L112.5,14.3z"/>
					<polygon fill="#0C0E0F" points="112,13.9 112.1,13.8 111.9,13.8 					"/>
					<path fill="#0C0E0F" d="M93.8,30.6L93.8,30.6C93.8,30.6,93.8,30.6,93.8,30.6z"/>
					<path fill="#0C0E0F" d="M93.3,29.7L93.3,29.7C93.3,29.8,93.3,29.8,93.3,29.7z"/>
					<path fill="#0C0E0F" d="M97.1,13.2c-0.2,0-0.5,0-0.4,0.1l0.1,0.1C96.9,13.3,97,13.3,97.1,13.2z"/>
					<path fill="#0C0E0F" d="M91.7,22L91.7,22c0-0.1,0-0.2,0-0.2C91.7,21.9,91.7,21.9,91.7,22z"/>
					<path fill="#0C0E0F" d="M92.2,22.2l-0.1,0.2C92.1,22.4,92.1,22.3,92.2,22.2z"/>
					<path fill="#0C0E0F" d="M97.4,34.3l0.2,0C97.3,34.1,97.4,34.2,97.4,34.3z"/>
					<path fill="#0C0E0F" d="M106,11.4c-0.2-0.1-0.3-0.1-0.4-0.1C105.7,11.4,105.9,11.5,106,11.4z"/>
					<path fill="#0C0E0F" d="M92.5,30.8c0.1,0.1,0.1,0.1,0.1,0.1C92.6,30.8,92.6,30.8,92.5,30.8z"/>
					<path fill="#0C0E0F" d="M105,11.3C105,11.3,105,11.3,105,11.3c0.2,0,0.4,0,0.5,0C105.4,11.2,105.2,11.2,105,11.3z"/>
					<path fill="#0C0E0F" d="M114,31.2C114,31.2,114,31.2,114,31.2C114,31.1,114,31.2,114,31.2z"/>
					<path fill="#0C0E0F" d="M117,26.2c0,0.1,0,0.2,0,0.2C117,26.4,117,26.3,117,26.2z"/>
					<path fill="#0C0E0F" d="M109.8,12.5C109.9,12.5,109.8,12.5,109.8,12.5L109.8,12.5z"/>
					<path fill="#0C0E0F" d="M110.2,13.2C110.2,13.2,110.1,13.2,110.2,13.2C110.1,13.2,110.2,13.2,110.2,13.2z"/>
					<path fill="#0C0E0F" d="M103.6,11.9L103.6,11.9C103.7,11.9,103.7,11.9,103.6,11.9z"/>
					<path fill="#0C0E0F" d="M110,12.6c0,0-0.1-0.1-0.1-0.1C109.8,12.5,109.9,12.6,110,12.6z"/>
					<path fill="#0C0E0F" d="M110,12.6c0,0,0.1,0,0.1,0.1C110.1,12.6,110.1,12.6,110,12.6z"/>
					<path fill="#0C0E0F" d="M109.6,12.4c0.1,0,0.1,0.1,0.2,0.1c0,0,0,0,0,0C109.8,12.5,109.7,12.5,109.6,12.4z"/>
					<path fill="#0C0E0F" d="M105.7,36.6C105.7,36.6,105.7,36.6,105.7,36.6C105.8,36.6,105.8,36.6,105.7,36.6z"/>
					<polygon fill="#0C0E0F" points="95.2,16.3 95.2,16.2 95.2,16.2 					"/>
					<path fill="#0C0E0F" d="M95,16.6c0-0.2,0.1-0.3,0.2-0.4l-0.3-0.1L95,16.6z"/>
					<path fill="#0C0E0F" d="M95.1,32.4L95,32.1c0.4,0.2,0.5,0.4,0.4,0.1c-0.3,0.2-0.8-0.9-1.1-0.7l-0.1-0.2c0,0,0.1,0,0.1,0.1
						c-0.1-0.4-0.4-0.1-0.6-0.6c-0.1-0.2-0.1-0.3,0-0.2l-0.3-0.3c-0.1-0.1,0-0.1,0.1,0c0,0-0.3-0.5-0.3-0.5l0,0
						c-0.1-0.1-0.2-0.2-0.3-0.3c0-0.2,0.1,0.1,0.1,0c0,0-0.2-0.3-0.2-0.3c0-0.2,0.2,0.1,0.3,0.3c0.2-0.4-0.2-0.2-0.3-0.9l0.1,0.3
						c0.1-0.3,0-0.5,0-0.8c0,0.1,0,0.8-0.2,0.5c0-0.1-0.1-0.2-0.2-0.4c0.1,0,0-0.2,0-0.4l0.2,0c-0.1-0.2-0.2-0.2-0.3-0.3
						c-0.1-0.3,0-0.4,0.1-0.5c0-0.5-0.1,0.4-0.3-0.2c0-0.4-0.1-0.6-0.2-1.1c0-0.3,0.1,0,0.1-0.1L92,25.2c0-0.1,0,0,0.1,0
						c-0.1-0.2-0.2,0-0.2-0.3c-0.2-0.1,0.2-0.7,0.1-1.1c0.1-0.1,0.1,0.1,0.2,0c-0.1-0.6-0.1-0.5-0.2-0.9l0.2-0.4
						c-0.2,0.3-0.2-0.1-0.3-0.5c-0.1,0.1-0.1,0.2-0.2,0.2c0,0,0-0.1,0-0.3c0-0.1,0-0.3,0-0.3c0-0.1,0.1,0,0.1,0.1c0,0,0-0.1,0-0.1
						c0.1-0.2,0.2-0.1,0.2,0.1c0,0.1-0.1,0.1-0.1,0.2c0.1,0.1,0.2,0.3,0.3,0.3c0,0,0-0.1,0-0.2c0,0,0,0.1,0.1,0.1c0,0,0-0.1,0-0.2
						l0.2-0.1l-0.1,0l0.3-0.6c-0.1-0.5-0.1-1,0.1-1.7c0,0.2,0.2,0.1,0.3,0.2c-0.2,0.1-0.1,0.6-0.3,0.9c0.1-0.2,0.1-0.1,0.1-0.1
						l0.1-0.7c0.1,0.1,0.1-0.1,0.3-0.2c-0.3,0,0.1-0.5,0.1-0.8c0.1,0,0.1,0.1,0,0.4c0.3-0.3-0.1-0.6,0.3-0.8c0,0.1-0.1,0.1-0.1,0.2
						c0-0.2,0.3-0.6,0.3-0.5l0,0.1c0.3-0.5,1-1.4,0.9-1.6c0,0,0.1,0.2,0.2,0.3c0,0,0-0.3,0.1-0.6c0-0.3,0.1-0.6,0.1-0.6
						c0.1,0.2,0.6,0.2,0.4,0.7c0.1-0.1,0.2-0.2,0.4-0.4c-0.1,0-0.4,0-0.3-0.1c0.4-0.1,0.3-0.1,0.7-0.2c-0.1,0.1-0.2-0.3,0-0.4
						c0,0.1,0.2,0.2,0.2,0.3c0,0,0.1-0.1,0.1-0.3c0.1-0.1,0.1-0.3,0.1-0.3c-0.1,0.1,0.1,0.2,0.3,0.2c-0.1,0,0.4-0.3,0.5-0.4
						l-0.2,0.1c0.5-0.3,0.3-0.7,0.8-1c0,0.1,0,0.4,0.3,0.3c0-0.2,0.2-0.9,0.7-1.3l0.1,0c0,0,0.4-0.3,0.4-0.3c-0.2,0.3-0.6,1-0.9,1.4
						c0.2,0,0.1,0.1,0.4-0.1c0.1,0-0.1,0.2-0.2,0.2l0.7-0.3c-0.1-0.2,0.5-0.4,0.4-0.5c0,0-0.2,0.1-0.4,0.2c-0.2,0.1-0.3,0.3-0.3,0.3
						c-0.1-0.1,0.2-0.7,0.8-0.8c0.2,0,0,0.3,0,0.4c0-0.1,0.5-0.3,0.5-0.3l-0.2,0.2c0.3,0,0.4-0.4,0.8-0.3c0.1,0,0.4,0.1,0.4,0
						c-0.2-0.1-0.4-0.7-0.3-0.9c0.1,0,0.7,0,0.9,0.1c0.2,0.1-0.3,0.4-0.1,0.5c0,0,0.1-0.1,0.2-0.1c0.1,0,0,0.1,0.3,0.1
						c0-0.2,0.6-0.1,0.1-0.2c0.3-0.1,0.3,0,0.6-0.1c-0.1-0.1,0.3-0.4,0.6-0.5c0,0,0.1,0.1,0.1,0.1c0.6,0,0.9,0.1,1.5,0.1
						c0,0,0.3,0.1,0.2,0.2c0.1,0,0.2-0.1,0.3,0c0.3,0.2-0.4,0-0.2,0.2c0-0.1,0.5-0.1,0.7-0.1c0-0.2-0.6-0.1-0.8-0.1
						c0-0.2,0.5-0.4,1.1-0.4c0.5,0,0.2,0.2,0.3,0.2c0.9,0.3,0.9-0.2,1.5,0.2c0.2,0.2-0.1,0.3,0,0.4c-0.4-0.1-0.5-0.3-0.8-0.3
						l0.3,0.1c-0.1,0-0.4,0-0.5-0.1c0.2,0.2,1.4,0.4,2,0.8c0.1,0,0.3,0.1,0.3,0l-0.2-0.1c-0.1-0.2,0.4,0,0.2-0.1
						c0.3,0.1,0.7,0.1,1,0.4l0,0.2c0,0-0.2-0.2-0.3-0.2c0.2,0,0.4,0.5,0.7,0.4l-0.2-0.2c0.3,0.1,0.7,0.1,1,0.4
						c-0.1-0.2-0.1,0-0.2-0.3c0.1,0.3-0.8-0.5-0.6-0.1c-0.1-0.3-0.4-0.3-0.6-0.6c0,0,0.1,0.1-0.2,0c0,0-0.1,0-0.1,0l0,0l0,0
						c0,0,0,0,0,0c0.1,0.1,0.1,0.1,0.1,0.1c-0.2,0-0.6-0.2-0.8-0.2c-0.2-0.1,0.1,0,0-0.1c0,0-0.3,0-0.3,0c0-0.1-0.4-0.3,0-0.3
						l-0.4-0.1c-0.2-0.1-0.5-0.3-0.7-0.3c-0.2-0.1-0.5,0-0.3,0l-0.6-0.1l0,0c-0.3-0.1-0.6-0.1-1-0.1c-0.3,0-0.7-0.1-1-0.2
						c-0.2,0-0.4,0-0.8,0l-0.1-0.1c-0.3,0-0.8-0.1-0.9,0c-0.3-0.3-1.3,0.1-1.8,0.1l0,0.1c-0.3,0.1-0.6,0.2-1,0.3l0.1,0.1
						c-0.3,0.2-0.9,0.2-1.4,0.4c0-0.1,0.2-0.1,0.3-0.1c-0.7,0-1.2,0.7-1.8,0.8c-0.1,0.1-0.2,0.2-0.3,0.2c0,0,0,0,0,0c0,0,0,0-0.1,0
						c-0.1,0-0.1,0-0.2,0.1c0.1,0,0.1,0,0.2,0c-0.1,0.1-0.2,0.2-0.4,0.3l-0.1-0.1c0,0,0,0,0,0c-0.2,0.1-0.1,0.1,0,0.1
						c-0.1,0.1-0.1,0.1-0.1,0.2c-0.2-0.1-0.3,0.3-0.6,0.3c0,0.1-0.2,0.2-0.3,0.4c-0.1,0.2-0.3,0.3-0.2,0.4c0,0-0.1,0,0-0.1
						c-0.2,0.1-0.3,0.2-0.4,0.4L95,15.1c0,0-0.1,0.4-0.1,0.4c-0.2,0.1-0.3,0.2-0.3-0.1c-0.3,0.6-0.3,0.4-0.5,0.9l-0.1-0.1
						c-0.1,0.1-0.2,0.5-0.3,0.5c-0.4,0.2-1.1,1.6-1.7,2.5c0.3-0.1-0.3,0.4-0.1,0.5c-0.1,0-0.2,0.2-0.2,0c-0.1,0.5-0.4,0.7-0.3,1.1
						c-0.1,0-0.1-0.1-0.1-0.1c0,0,0,0.2,0,0.2c-0.1,0,0-0.1,0-0.2c-0.1,0.5,0.1,0.6,0.3,0.7c-0.2,0.2-0.2,0.4-0.1,0.6
						c-0.1,0.1-0.2,0.2-0.1-0.1c0,0.2-0.3,1.1-0.1,1.2c0,0.1,0,0.3,0,0.3c0,0.4,0,0.5-0.1,0.9l0-0.1c0.2,0.2,0,0.3,0.1,0.7l0,0
						c-0.1,0.8,0.1,0.3,0,1.1l0.1-0.1c0.3,0-0.1,0.7,0.1,1.1l0-0.2c0.1,0.2-0.2,0.7-0.2,1c0,0.1-0.1-0.1-0.1-0.1
						c0,0.7,0.2,0,0.3,0.5c-0.1,0.1-0.2,0-0.2,0.3c0,0.2,0.6,0.8,0.6,1.2c0-0.1,0-0.2,0.2,0c0.2,0.3,0.2,0.9,0.5,1.1
						c0,0,0,0.1,0,0.1c0.2,0.2,0.5,0.7,0.7,0.7c-0.2,0.4,1.1,1.2,0.8,1.4l0.5,0.6l0,0c0.3,0.4,0.5,0.4,0.7,0.5c0.1,0.1,0,0.1,0,0.1
						c0.5,0.6,0.6,0.6,1.2,0.8l0,0.1c0.2,0.1,0.8,0.8,1.5,1c0,0,0,0-0.1,0c0.4,0.1,0.8,0.4,1.2,0.6c0.4,0.2,0.7,0.3,0.9,0.2
						c0,0,0.5,0,0.5,0c-0.7-0.2,0.2-0.2-0.1-0.3c0.3,0,0.6,0.3,0.3,0.2l0,0c-0.2,0.2,0.8,0.3,0.8,0.4c1.3,0.3,2.7,0.4,4,0.3
						l-0.2-0.2c0,0,0.4-0.1,0.4-0.1c0.1,0,0.2,0.1-0.1,0.2c0.2,0.1,0.5-0.2,0.5-0.2c0.6,0-0.2,0.2,0,0.2l0.3-0.1l-0.1,0
						c0.2-0.1,0.2-0.2,0.6-0.3c0.2,0,0.1,0.1,0.2,0.1c0,0,0,0,0.1,0l0.6-0.1l-0.3-0.1c0.2-0.1,0.5-0.1,0.2-0.2
						c0.2,0.1,0.7-0.1,1.2-0.3c0.5-0.2,0.9-0.4,1-0.5c0.3-0.2,0.5-0.4,0.9-0.6c-0.1,0-0.2-0.1,0.1-0.2c0.1,0.4,0.6-0.3,1-0.2
						c-0.3,0,0.8-0.7,0.3-0.6c0.2-0.2,0.1,0.1,0.3,0c0.5-0.6,1.2-1.1,1.8-1.8c0,0-0.2,0-0.1-0.2l0.5-0.3c0.1-0.2-0.1-0.3,0.2-0.5
						c-0.1,0-0.1,0-0.1-0.1c1.2-1.4,1.5-3.3,2.2-5c-0.1,0.2-0.1,0.1-0.1-0.1c0,0.1-0.1,0-0.2,0c0,0,0.3-0.7,0.3-0.7
						c-0.2-0.2,0-0.8-0.1-0.9l0,0.2c-0.2-0.3-0.4,0.4-0.7,0.3c0.2,0.4-0.4,0.8-0.2,1.4c-0.1,0.1-0.1-0.1-0.1-0.1
						c0.1,0.2,0.1,0.3-0.1,0.6l0,0c-0.2,0.9-0.4,1.2-0.8,2l0.1,0c-0.1,0.2-0.2,0.2-0.2,0.3c0.1,0.3,0.3-0.5,0.4-0.2
						c-0.2,0.1-0.3,0.4-0.5,0.7c-0.2,0.3-0.4,0.6-0.5,0.6c-0.2,0.3,0.2,0,0,0.3l-0.1,0l0,0.1c-0.1,0.2-0.3,0.2-0.3,0.2
						c0,0,0.1-0.1,0.1-0.2c-0.2,0.2-0.4,0.6-0.5,0.7l0.2-0.2c-0.4,0.8-1.3,1.4-1.8,2.1l0.1,0c-0.4,0.5-0.5,0.3-1,0.7l0,0
						c-0.1,0.1-0.2,0.3-0.4,0.4c0.1-0.1-0.4,0.1-0.2-0.1c-0.5,0.5-0.2,0.3-0.6,0.7l-0.1,0c-0.1,0.1-0.1,0.2-0.4,0.4
						c0.2-0.2-0.3,0,0-0.3c-0.7,0.2-1,0.6-1.4,0.5c-0.2,0.4,0.7-0.1,0.5,0c0.2,0-0.2,0.3-0.4,0.3c-0.2,0.1-0.5-0.2-1.1,0
						c0.1,0,0.1,0,0.1,0c-0.2,0-0.4,0.2-0.7,0.1c-0.1,0.2-0.4,0-0.4,0.2l0.5-0.1c-0.3,0.1-0.6,0.4-1.1,0.3c0,0,0.2-0.1,0.3-0.2
						c-0.2,0-0.3,0.1-0.4,0c0-0.2,0.7-0.1,1-0.3c-0.2-0.1-0.6,0.2-0.5,0c-0.2,0.3-0.6,0.1-1,0.3l0-0.1c-0.1,0-0.2,0.1-0.3,0.1
						l0.2-0.2c-0.3,0.1-0.6-0.1-0.9,0c0.6,0,0.1,0.2,0.4,0.2c-0.8,0.1-0.5-0.3-1.4-0.3c0.1,0,0.4,0.1,0.3,0.1
						c-0.2,0-0.4-0.1-0.5-0.2c-0.6-0.1,0.1,0.1-0.2,0.2c-0.2-0.2-0.3,0-0.6,0l0-0.1c-0.7-0.2-0.2,0.2-0.8,0l0.3-0.1l-0.3,0l0.1-0.1
						c-0.4,0-0.5,0-0.8-0.2c0,0.1-0.1,0.2-0.4,0.1c-0.2-0.1,0.1-0.1-0.3-0.2c0.1,0,0.3-0.1,0.4,0.1c0,0,0.1,0,0.1-0.1
						c-0.2-0.2-0.5-0.2-0.7-0.3c0.1,0,0.1,0.1,0.1,0.1c0,0-0.6-0.1-0.6-0.1c-0.1-0.1,0-0.1,0.1-0.1c-0.1,0-0.2,0-0.4-0.1
						c0.1-0.1,0.1-0.2,0.4-0.1l-0.6-0.2c0-0.1-0.2-0.2-0.1-0.2c-0.2-0.2-0.8-0.2-1.1-0.5c0,0-0.1,0-0.2-0.1c-0.3-0.3-0.5-0.5-1-0.8
						l-0.1-0.3c-0.3-0.2,0.1,0.4-0.4,0c-0.4-0.3,0-0.2-0.1-0.4c-0.2-0.1-0.6-0.3-0.8-0.7C95,32.2,95,32.3,95.1,32.4z M92.7,28.4
						c0.1,0.1,0.2,0.2,0.1,0.3C92.7,28.7,92.7,28.6,92.7,28.4z M92.1,21.4c0,0.1,0,0.2-0.1,0.3C92.1,21.6,92.1,21.5,92.1,21.4z
						 M108.4,12L108.4,12C108.2,11.9,108.2,11.9,108.4,12z M108.8,12.2C108.8,12.2,108.8,12.2,108.8,12.2c0,0-0.1-0.1-0.2-0.1
						C108.6,12.2,108.7,12.2,108.8,12.2z M107.2,37.2L107.2,37.2C107.3,37.1,107.3,37.1,107.2,37.2z"/>
					<path fill="#0C0E0F" d="M92.1,22.2C92.1,22.2,92.1,22.2,92.1,22.2C92.1,22.3,92.1,22.3,92.1,22.2z"/>
					<path fill="#0C0E0F" d="M97.3,34.3L97.3,34.3C97.3,34.3,97.3,34.3,97.3,34.3L97.3,34.3z"/>
					<path fill="#0C0E0F" d="M102,12.6c-0.1,0-0.1,0-0.2,0C101.8,12.5,101.9,12.6,102,12.6z"/>
					<path fill="#0C0E0F" d="M111.1,13.1l-0.3-0.1C110.9,13.1,111,13.1,111.1,13.1C111,13.1,111,13.1,111.1,13.1z"/>
					<path fill="#0C0E0F" d="M112.6,15.2c0,0,0.1,0.1,0.1,0.1l0,0C112.6,15.1,112.5,15.1,112.6,15.2z"/>
					<path fill="#0C0E0F" d="M111.1,13.6c0,0.1,0.1,0.2,0.3,0.3l0,0C111.5,13.8,111.3,13.7,111.1,13.6z"/>
					<path fill="#0C0E0F" d="M111.4,13.9c0.1,0,0.1,0.1,0.2,0.1C111.6,14,111.5,14,111.4,13.9z"/>
					<path fill="#0C0E0F" d="M109.4,12.4c0.1,0.1,0.1-0.1,0.1,0C109.7,12.3,108.8,12.2,109.4,12.4z"/>
					<polygon fill="#0C0E0F" points="111,14 111.1,13.8 110.9,13.9 					"/>
					<path fill="#0C0E0F" d="M109.7,13.1l0.3,0.2c0,0,0,0,0.1,0C109.9,13.2,109.7,13.1,109.7,13.1z"/>
					<path fill="#0C0E0F" d="M110.1,13.3c0.1,0,0.2,0.1,0.2,0.1C110.3,13.4,110.2,13.3,110.1,13.3z"/>
					<polygon fill="#0C0E0F" points="110.7,13.8 110.6,13.7 110.4,13.6 					"/>
					<path fill="#0C0E0F" d="M106.5,12l-0.3,0c0,0,0,0.1,0.2,0.1C106.4,12,106.6,12,106.5,12z"/>
					<path fill="#0C0E0F" d="M107.4,12.6c-0.1,0-0.1-0.1-0.1-0.1l-0.1,0.1L107.4,12.6z"/>
					<path fill="#0C0E0F" d="M106.5,12.4c0,0-0.5,0-0.1,0.1C106.4,12.4,106.8,12.5,106.5,12.4z"/>
					<polygon fill="#0C0E0F" points="101.4,12.2 101.5,12.2 101.4,12 					"/>
					<path fill="#0C0E0F" d="M97.6,14.5c0.4-0.1,0-0.2,0.3-0.3c0-0.1-0.3,0.1-0.2,0C97.5,14.4,97.4,14.4,97.6,14.5z"/>
					<path fill="#0C0E0F" d="M97.7,14.2C97.7,14.2,97.7,14.1,97.7,14.2C97.7,14.2,97.7,14.2,97.7,14.2z"/>
					<polygon fill="#0C0E0F" points="117.3,25.2 117.3,25 117.2,25.1 					"/>
					<path fill="#0C0E0F" d="M117.1,24.7l0.2-0.1l-0.1-0.2C117.1,24.5,117.1,24.7,117.1,24.7z"/>
					<path fill="#0C0E0F" d="M92.8,27.7L92.8,27.7c-0.1,0-0.1,0.1,0,0.2L92.8,27.7z"/>
					<polygon fill="#0C0E0F" points="94.1,30.8 94,30.7 94,30.9 					"/>
					<path fill="#0C0E0F" d="M95.9,32.8c-0.1-0.1-0.2-0.2-0.3-0.2C95.9,32.7,95.8,33,95.9,32.8z"/>
				</g>
			</g>
		</g>
	</g>
</g>
<text transform="matrix(0.7702 0 0 1 94.421 32.8947)" font-family="'MyriadPro-Regular'" font-size="24.3712">30</text>
</svg>
